<?xml version="1.0" standalone="no"?>
<!DOCTYPE svg PUBLIC "-//W3C//DTD SVG 20010904//EN"
 "http://www.w3.org/TR/2001/REC-SVG-20010904/DTD/svg10.dtd">
<svg version="1.0" xmlns="http://www.w3.org/2000/svg"
 width="512.000000pt" height="512.000000pt" viewBox="0 0 512.000000 512.000000"
 preserveAspectRatio="xMidYMid meet">

<g transform="translate(0.000000,512.000000) scale(0.100000,-0.100000)"
fill="#000000" stroke="none">
<path d="M655 4604 c-216 -53 -405 -241 -460 -459 -23 -90 -23 -3080 0 -3170
51 -202 218 -381 416 -446 l74 -24 655 0 c639 0 656 0 682 20 82 60 75 194
-14 242 -30 17 -81 18 -663 23 l-630 5 -50 23 c-68 31 -138 102 -172 176 l-28
61 -3 1093 -3 1092 2095 0 2095 0 3 -297 c3 -278 4 -300 23 -333 28 -48 78
-72 138 -67 40 3 56 11 85 41 l37 36 0 748 0 747 -24 74 c-60 182 -207 331
-393 399 l-73 27 -1865 2 c-1602 1 -1873 -1 -1925 -13z m3805 -303 c61 -32
126 -96 158 -156 l27 -50 3 -283 3 -282 -2093 2 -2093 3 -3 220 c-3 237 5 323
37 389 37 75 127 151 211 177 14 4 853 7 1865 6 l1840 -2 45 -24z"/>
<path d="M935 4050 c-83 -54 -85 -179 -3 -230 26 -17 45 -20 87 -17 47 3 59 9
88 40 32 35 38 57 33 117 -6 87 -129 140 -205 90z"/>
<path d="M1423 4050 c-115 -70 -63 -250 72 -250 76 0 135 59 135 135 0 106
-116 171 -207 115z"/>
<path d="M1915 4052 c-39 -24 -54 -43 -65 -83 -14 -48 4 -101 45 -138 65 -57
172 -35 208 42 22 45 21 84 -1 126 -35 65 -125 90 -187 53z"/>
<path d="M2890 2271 c-160 -35 -341 -128 -422 -219 -69 -76 -69 -81 -66 -703
3 -545 3 -555 24 -594 31 -57 71 -94 133 -123 70 -32 148 -27 242 16 105 49
181 65 304 65 185 0 319 -46 442 -150 101 -85 154 -86 250 -2 116 102 259 152
438 152 123 1 195 -15 308 -65 121 -53 215 -49 299 15 26 19 54 53 71 86 l27
55 0 571 0 571 -26 53 c-48 96 -211 201 -399 258 -84 25 -102 27 -275 27 -160
0 -196 -3 -265 -22 -80 -22 -224 -86 -273 -121 l-27 -19 -63 39 c-68 41 -160
78 -257 105 -94 26 -357 29 -465 5z m399 -287 c69 -18 132 -46 193 -86 l48
-30 0 -474 c0 -261 -2 -474 -4 -474 -3 0 -44 13 -93 29 -115 39 -193 51 -329
51 -126 0 -246 -20 -342 -56 -35 -13 -66 -24 -68 -24 -2 0 -4 213 -4 473 0
538 -10 482 94 536 144 76 341 97 505 55z m1128 0 c69 -18 154 -55 206 -91
l37 -26 0 -473 c0 -261 -2 -474 -4 -474 -3 0 -44 13 -93 29 -227 76 -439 68
-725 -26 -17 -5 -18 22 -18 471 l0 476 59 39 c141 90 360 121 538 75z"/>
</g>
</svg>
