<?xml version="1.0" standalone="no"?>
<!DOCTYPE svg PUBLIC "-//W3C//DTD SVG 20010904//EN"
 "http://www.w3.org/TR/2001/REC-SVG-20010904/DTD/svg10.dtd">
<svg version="1.0" xmlns="http://www.w3.org/2000/svg"
 width="512.000000pt" height="512.000000pt" viewBox="0 0 512.000000 512.000000"
 preserveAspectRatio="xMidYMid meet">

<g transform="translate(0.000000,512.000000) scale(0.100000,-0.100000)"
fill="#000000" stroke="none">
<path d="M2335 4910 c-444 -47 -845 -204 -1200 -470 -130 -97 -361 -328 -458
-458 -239 -321 -395 -694 -453 -1087 -25 -165 -25 -506 -1 -665 82 -539 324
-1008 712 -1378 546 -522 1303 -747 2055 -612 885 160 1617 837 1849 1712 58
216 75 349 75 598 1 169 -4 254 -17 340 -81 524 -305 968 -672 1336 -190 190
-379 327 -623 449 -219 109 -451 182 -702 220 -122 19 -449 27 -565 15z m426
-240 c875 -89 1603 -697 1839 -1535 57 -204 74 -338 74 -575 0 -180 -4 -236
-23 -345 -80 -451 -278 -834 -595 -1151 -951 -951 -2525 -790 -3269 336 -182
276 -302 618 -337 959 -53 526 105 1069 439 1506 64 84 242 266 331 338 432
349 1000 521 1541 467z"/>
<path d="M2465 3907 c-109 -37 -186 -103 -232 -202 -24 -51 -28 -73 -28 -145
0 -72 4 -94 28 -146 36 -77 104 -145 182 -181 51 -24 73 -28 145 -28 72 0 94
4 145 28 78 36 146 104 182 181 24 52 28 74 28 146 0 72 -4 94 -28 146 -57
123 -177 204 -311 211 -41 1 -88 -3 -111 -10z m179 -266 c26 -27 31 -39 31
-81 0 -43 -5 -54 -33 -82 -28 -28 -39 -33 -82 -33 -43 0 -54 5 -82 33 -28 28
-33 39 -33 81 0 52 25 92 70 112 37 16 96 3 129 -30z"/>
<path d="M2469 3077 c-104 -30 -190 -104 -238 -206 l-26 -56 0 -670 0 -670 33
-67 c63 -128 179 -201 322 -201 144 0 259 72 322 201 l33 67 0 670 0 670 -32
66 c-60 121 -170 196 -300 205 -40 2 -87 -2 -114 -9z m152 -250 c18 -12 39
-34 46 -47 10 -19 13 -167 13 -635 0 -594 -1 -611 -20 -643 -12 -19 -37 -40
-58 -49 -50 -21 -107 -2 -139 46 l-23 34 0 611 c0 469 3 617 13 636 16 33 73
70 107 70 15 0 42 -10 61 -23z"/>
</g>
</svg>
