<?xml version="1.0" standalone="no"?>
<!DOCTYPE svg PUBLIC "-//W3C//DTD SVG 20010904//EN"
 "http://www.w3.org/TR/2001/REC-SVG-20010904/DTD/svg10.dtd">
<svg version="1.0" xmlns="http://www.w3.org/2000/svg"
 width="512.000000pt" height="512.000000pt" viewBox="0 0 512.000000 512.000000"
 preserveAspectRatio="xMidYMid meet">

<g transform="translate(0.000000,512.000000) scale(0.100000,-0.100000)"
fill="#000000" stroke="none">
<path d="M2260 4835 c-501 -70 -965 -300 -1320 -655 -357 -356 -590 -829 -654
-1328 -18 -142 -21 -398 -5 -540 93 -858 658 -1585 1474 -1899 109 -41 315
-97 445 -118 207 -35 564 -30 780 11 932 178 1656 902 1834 1836 41 213 46
572 11 778 -80 477 -303 916 -634 1250 -349 351 -774 570 -1271 656 -135 23
-520 28 -660 9z m562 -320 c357 -49 699 -197 978 -422 89 -72 257 -243 321
-328 284 -372 420 -797 406 -1270 -9 -292 -63 -521 -187 -782 -292 -615 -879
-1033 -1564 -1114 -123 -14 -431 -6 -541 14 -192 36 -357 89 -523 168 -609
289 -1028 872 -1112 1549 -13 109 -13 351 1 460 112 906 814 1613 1715 1729
116 14 384 12 506 -4z"/>
<path d="M1650 3349 c-14 -6 -36 -20 -48 -32 -78 -72 -68 -185 21 -251 28 -21
31 -21 937 -21 906 0 909 0 937 21 98 73 98 195 0 268 -28 21 -32 21 -925 23
-582 1 -906 -2 -922 -8z"/>
<path d="M1650 2709 c-14 -6 -36 -20 -48 -32 -78 -72 -68 -185 21 -251 28 -21
31 -21 937 -21 906 0 909 0 937 21 98 73 98 195 0 268 -28 21 -32 21 -925 23
-582 1 -906 -2 -922 -8z"/>
<path d="M1650 2069 c-14 -6 -36 -20 -48 -32 -78 -72 -68 -185 21 -251 28 -21
31 -21 937 -21 906 0 909 0 937 21 98 73 98 195 0 268 -28 21 -32 21 -925 23
-582 1 -906 -2 -922 -8z"/>
</g>
</svg>
