<?xml version="1.0" standalone="no"?>
<!DOCTYPE svg PUBLIC "-//W3C//DTD SVG 20010904//EN"
 "http://www.w3.org/TR/2001/REC-SVG-20010904/DTD/svg10.dtd">
<svg version="1.0" xmlns="http://www.w3.org/2000/svg"
 width="512.000000pt" height="512.000000pt" viewBox="0 0 512.000000 512.000000"
 preserveAspectRatio="xMidYMid meet">

<g transform="translate(0.000000,512.000000) scale(0.100000,-0.100000)"
fill="#000000" stroke="none">
<path d="M2335 4960 c-230 -50 -414 -151 -577 -317 -443 -454 -430 -1171 31
-1605 486 -459 1267 -393 1669 141 151 200 226 425 225 676 0 145 -11 217 -54
350 -55 172 -129 294 -262 432 -147 152 -324 257 -524 310 -137 36 -375 42
-508 13z m485 -235 c168 -54 283 -127 401 -253 164 -176 242 -371 242 -612 1
-154 -24 -264 -87 -395 -122 -249 -327 -416 -608 -492 -99 -27 -329 -24 -431
5 -164 47 -281 111 -394 216 -126 117 -223 281 -265 451 -27 113 -30 304 -4
409 64 264 246 497 481 613 145 72 244 93 430 89 131 -3 161 -7 235 -31z"/>
<path d="M2395 2644 c-556 -59 -1007 -266 -1376 -634 -218 -217 -309 -420
-309 -690 0 -154 29 -277 98 -415 97 -197 242 -329 513 -468 309 -158 637
-254 987 -288 147 -15 512 -6 642 15 299 48 547 125 804 251 288 140 439 270
545 466 86 158 117 299 108 487 -13 293 -141 516 -436 764 -313 262 -686 430
-1091 493 -102 15 -404 27 -485 19z m460 -239 c373 -57 727 -224 1015 -477
124 -110 203 -205 250 -303 51 -104 70 -187 70 -306 0 -226 -106 -437 -283
-563 -203 -144 -515 -275 -807 -340 -183 -40 -333 -56 -540 -56 -408 0 -755
81 -1115 261 -241 121 -356 219 -435 370 -55 106 -80 208 -80 329 0 210 81
386 253 546 344 323 731 502 1192 554 107 12 356 4 480 -15z"/>
</g>
</svg>
